<svg width="500" height="600" viewBox="0 0 500 600" fill="none" xmlns="http://www.w3.org/2000/svg">
<g clip-path="url(#clip0_1_2)">
<rect width="500" height="600" fill="#050505"/>
<path d="M250 70C248 96 251 122 249 148C247 194 251 250 248 318C246 398 251 486 247 578" stroke="url(#paint0_linear_1_2)" stroke-width="2.1" stroke-linecap="round" stroke-linejoin="round"/>
<path d="M248 111C239 135 217 150 186 162C146 177 103 194 72 225C57 240 48 257 41 276" stroke="url(#paint1_linear_1_2)" stroke-width="2" stroke-linecap="round" stroke-linejoin="round"/>
<path d="M251 118C270 143 303 154 346 166C391 180 429 202 459 238" stroke="url(#paint2_linear_1_2)" stroke-width="1.7" stroke-linecap="round" stroke-linejoin="round"/>
<path d="M249 139C232 161 205 176 170 194C139 210 112 234 86 270C70 292 56 315 39 335" stroke="url(#paint3_linear_1_2)" stroke-width="1.65" stroke-linecap="round" stroke-linejoin="round"/>
<path d="M252 148C276 171 297 193 320 227C345 263 374 292 417 318C435 329 452 343 468 362" stroke="url(#paint4_linear_1_2)" stroke-width="1.45" stroke-linecap="round" stroke-linejoin="round"/>
<path d="M247 166C219 191 197 223 176 266C158 302 139 335 108 373C83 404 69 433 64 463" stroke="url(#paint5_linear_1_2)" stroke-width="1.55" stroke-linecap="round" stroke-linejoin="round"/>
<path d="M253 178C272 207 281 245 286 293C291 344 307 382 337 427C359 459 373 496 381 552" stroke="url(#paint6_linear_1_2)" stroke-width="1.4" stroke-linecap="round" stroke-linejoin="round"/>
<path d="M245 194C225 227 217 268 215 316C213 363 204 407 184 452C167 490 152 528 143 586" stroke="url(#paint7_linear_1_2)" stroke-width="1.35" stroke-linecap="round" stroke-linejoin="round"/>
<path d="M255 203C287 230 314 257 337 293C360 329 389 352 433 365C454 371 470 382 482 398" stroke="url(#paint8_linear_1_2)" stroke-width="1.75" stroke-linecap="round" stroke-linejoin="round"/>
<path d="M241 225C210 252 186 282 162 322C140 359 113 386 77 407C58 419 45 435 36 455" stroke="url(#paint9_linear_1_2)" stroke-width="1.25" stroke-linecap="round" stroke-linejoin="round"/>
<path d="M257 239C285 271 302 308 315 360C326 403 345 434 373 462C399 489 413 520 422 573" stroke="url(#paint10_linear_1_2)" stroke-width="1.25" stroke-linecap="round" stroke-linejoin="round"/>
<path d="M238 260C219 292 209 328 206 373C202 423 190 459 167 493C148 521 139 551 138 590" stroke="url(#paint11_linear_1_2)" stroke-width="1.1" stroke-linecap="round" stroke-linejoin="round"/>
<path d="M261 276C278 312 279 356 270 405C263 444 268 481 287 523C297 545 300 566 295 590" stroke="url(#paint12_linear_1_2)" stroke-width="1.1" stroke-linecap="round" stroke-linejoin="round"/>
<path d="M232 300C201 319 177 344 158 380C139 415 113 439 78 451C59 458 44 470 32 488" stroke="url(#paint13_linear_1_2)" stroke-width="1.05" stroke-linecap="round" stroke-linejoin="round"/>
<path d="M267 319C297 342 325 368 349 400C371 430 398 451 431 463C453 471 469 486 480 508" stroke="url(#paint14_linear_1_2)" stroke-linecap="round" stroke-linejoin="round"/>
<path d="M244 345C224 380 213 420 209 464C205 513 195 548 178 590" stroke="url(#paint15_linear_1_2)" stroke-linecap="round" stroke-linejoin="round"/>
<path d="M256 366C276 396 287 434 291 480C295 528 306 562 324 590" stroke="url(#paint16_linear_1_2)" stroke-width="0.95" stroke-linecap="round" stroke-linejoin="round"/>
<path d="M186 162C163 154 142 153 120 160C102 166 84 166 66 158" stroke="url(#paint17_linear_1_2)" stroke-width="1.05" stroke-linecap="round" stroke-linejoin="round"/>
<path d="M170 194C147 189 126 195 106 211C92 223 77 227 59 223" stroke="url(#paint18_linear_1_2)" stroke-width="0.9" stroke-linecap="round" stroke-linejoin="round"/>
<path d="M176 266C151 264 128 274 108 296C93 312 78 322 58 326" stroke="url(#paint19_linear_1_2)" stroke-width="0.95" stroke-linecap="round" stroke-linejoin="round"/>
<path d="M162 322C140 316 119 322 99 340C84 354 69 360 51 358" stroke="url(#paint20_linear_1_2)" stroke-width="0.85" stroke-linecap="round" stroke-linejoin="round"/>
<path d="M108 373C91 369 74 375 58 391C47 402 36 408 25 409" stroke="url(#paint21_linear_1_2)" stroke-width="0.85" stroke-linecap="round" stroke-linejoin="round"/>
<path d="M184 452C164 441 145 439 128 447C113 455 100 468 89 487" stroke="url(#paint22_linear_1_2)" stroke-width="0.78" stroke-linecap="round" stroke-linejoin="round"/>
<path d="M167 493C146 496 130 509 119 531C110 549 99 563 83 574" stroke="url(#paint23_linear_1_2)" stroke-width="0.72" stroke-linecap="round" stroke-linejoin="round"/>
<path d="M143 586C126 565 112 552 95 548C79 544 64 550 50 565" stroke="url(#paint24_linear_1_2)" stroke-width="0.7" stroke-linecap="round" stroke-linejoin="round"/>
<path d="M346 166C363 157 381 158 400 168C416 176 432 177 448 169" stroke="url(#paint25_linear_1_2)" stroke-width="0.9" stroke-linecap="round" stroke-linejoin="round"/>
<path d="M320 227C342 217 365 219 389 233C406 243 424 247 444 241" stroke="url(#paint26_linear_1_2)" stroke-width="0.85" stroke-linecap="round" stroke-linejoin="round"/>
<path d="M337 293C356 289 374 298 391 320C405 338 421 349 440 353" stroke="url(#paint27_linear_1_2)" stroke-width="0.82" stroke-linecap="round" stroke-linejoin="round"/>
<path d="M373 462C392 455 411 461 430 481C444 496 460 504 478 504" stroke="url(#paint28_linear_1_2)" stroke-width="0.78" stroke-linecap="round" stroke-linejoin="round"/>
<path d="M286 293C308 283 330 286 352 304C368 317 386 323 407 319" stroke="url(#paint29_linear_1_2)" stroke-width="0.78" stroke-linecap="round" stroke-linejoin="round"/>
<path d="M270 405C291 397 309 402 324 421C336 436 351 444 368 442" stroke="url(#paint30_linear_1_2)" stroke-width="0.72" stroke-linecap="round" stroke-linejoin="round"/>
<path d="M315 360C338 361 357 373 372 397C383 416 397 429 416 435" stroke="url(#paint31_linear_1_2)" stroke-width="0.68" stroke-linecap="round" stroke-linejoin="round"/>
<path d="M295 590C307 567 321 554 338 550C354 546 369 553 383 570" stroke="url(#paint32_linear_1_2)" stroke-width="0.65" stroke-linecap="round" stroke-linejoin="round"/>
<path d="M247 148C237 172 239 194 252 216" stroke="url(#paint33_linear_1_2)" stroke-width="0.9" stroke-linecap="round" stroke-linejoin="round"/>
<path d="M253 178C241 205 240 232 251 260" stroke="url(#paint34_linear_1_2)" stroke-width="0.82" stroke-linecap="round" stroke-linejoin="round"/>
<path d="M245 194C257 222 258 250 247 280" stroke="url(#paint35_linear_1_2)" stroke-width="0.78" stroke-linecap="round" stroke-linejoin="round"/>
<path d="M257 239C242 270 240 301 251 333" stroke="url(#paint36_linear_1_2)" stroke-width="0.72" stroke-linecap="round" stroke-linejoin="round"/>
<path d="M241 225C253 253 254 282 242 313" stroke="url(#paint37_linear_1_2)" stroke-width="0.68" stroke-linecap="round" stroke-linejoin="round"/>
<circle cx="250" cy="53" r="16" fill="#F0F0F0"/>
</g>
<defs>
<linearGradient id="paint0_linear_1_2" x1="250" y1="70" x2="250" y2="575" gradientUnits="userSpaceOnUse">
<stop stop-color="#F0F0F0"/>
<stop offset="0.42" stop-color="#E6E0CF"/>
<stop offset="1" stop-color="#AA7D20"/>
</linearGradient>
<linearGradient id="paint1_linear_1_2" x1="250" y1="70" x2="250" y2="575" gradientUnits="userSpaceOnUse">
<stop stop-color="#F0F0F0"/>
<stop offset="0.42" stop-color="#E6E0CF"/>
<stop offset="1" stop-color="#AA7D20"/>
</linearGradient>
<linearGradient id="paint2_linear_1_2" x1="250" y1="70" x2="250" y2="575" gradientUnits="userSpaceOnUse">
<stop stop-color="#F0F0F0"/>
<stop offset="0.42" stop-color="#E6E0CF"/>
<stop offset="1" stop-color="#AA7D20"/>
</linearGradient>
<linearGradient id="paint3_linear_1_2" x1="250" y1="70" x2="250" y2="575" gradientUnits="userSpaceOnUse">
<stop stop-color="#F0F0F0"/>
<stop offset="0.42" stop-color="#E6E0CF"/>
<stop offset="1" stop-color="#AA7D20"/>
</linearGradient>
<linearGradient id="paint4_linear_1_2" x1="250" y1="70" x2="250" y2="575" gradientUnits="userSpaceOnUse">
<stop stop-color="#F0F0F0"/>
<stop offset="0.42" stop-color="#E6E0CF"/>
<stop offset="1" stop-color="#AA7D20"/>
</linearGradient>
<linearGradient id="paint5_linear_1_2" x1="250" y1="70" x2="250" y2="575" gradientUnits="userSpaceOnUse">
<stop stop-color="#F0F0F0"/>
<stop offset="0.42" stop-color="#E6E0CF"/>
<stop offset="1" stop-color="#AA7D20"/>
</linearGradient>
<linearGradient id="paint6_linear_1_2" x1="250" y1="70" x2="250" y2="575" gradientUnits="userSpaceOnUse">
<stop stop-color="#F0F0F0"/>
<stop offset="0.42" stop-color="#E6E0CF"/>
<stop offset="1" stop-color="#AA7D20"/>
</linearGradient>
<linearGradient id="paint7_linear_1_2" x1="250" y1="70" x2="250" y2="575" gradientUnits="userSpaceOnUse">
<stop stop-color="#F0F0F0"/>
<stop offset="0.42" stop-color="#E6E0CF"/>
<stop offset="1" stop-color="#AA7D20"/>
</linearGradient>
<linearGradient id="paint8_linear_1_2" x1="250" y1="70" x2="250" y2="575" gradientUnits="userSpaceOnUse">
<stop stop-color="#F0F0F0"/>
<stop offset="0.42" stop-color="#E6E0CF"/>
<stop offset="1" stop-color="#AA7D20"/>
</linearGradient>
<linearGradient id="paint9_linear_1_2" x1="250" y1="70" x2="250" y2="575" gradientUnits="userSpaceOnUse">
<stop stop-color="#F0F0F0"/>
<stop offset="0.42" stop-color="#E6E0CF"/>
<stop offset="1" stop-color="#AA7D20"/>
</linearGradient>
<linearGradient id="paint10_linear_1_2" x1="250" y1="70" x2="250" y2="575" gradientUnits="userSpaceOnUse">
<stop stop-color="#F0F0F0"/>
<stop offset="0.42" stop-color="#E6E0CF"/>
<stop offset="1" stop-color="#AA7D20"/>
</linearGradient>
<linearGradient id="paint11_linear_1_2" x1="250" y1="70" x2="250" y2="575" gradientUnits="userSpaceOnUse">
<stop stop-color="#F0F0F0"/>
<stop offset="0.42" stop-color="#E6E0CF"/>
<stop offset="1" stop-color="#AA7D20"/>
</linearGradient>
<linearGradient id="paint12_linear_1_2" x1="250" y1="70" x2="250" y2="575" gradientUnits="userSpaceOnUse">
<stop stop-color="#F0F0F0"/>
<stop offset="0.42" stop-color="#E6E0CF"/>
<stop offset="1" stop-color="#AA7D20"/>
</linearGradient>
<linearGradient id="paint13_linear_1_2" x1="250" y1="70" x2="250" y2="575" gradientUnits="userSpaceOnUse">
<stop stop-color="#F0F0F0"/>
<stop offset="0.42" stop-color="#E6E0CF"/>
<stop offset="1" stop-color="#AA7D20"/>
</linearGradient>
<linearGradient id="paint14_linear_1_2" x1="250" y1="70" x2="250" y2="575" gradientUnits="userSpaceOnUse">
<stop stop-color="#F0F0F0"/>
<stop offset="0.42" stop-color="#E6E0CF"/>
<stop offset="1" stop-color="#AA7D20"/>
</linearGradient>
<linearGradient id="paint15_linear_1_2" x1="250" y1="70" x2="250" y2="575" gradientUnits="userSpaceOnUse">
<stop stop-color="#F0F0F0"/>
<stop offset="0.42" stop-color="#E6E0CF"/>
<stop offset="1" stop-color="#AA7D20"/>
</linearGradient>
<linearGradient id="paint16_linear_1_2" x1="250" y1="70" x2="250" y2="575" gradientUnits="userSpaceOnUse">
<stop stop-color="#F0F0F0"/>
<stop offset="0.42" stop-color="#E6E0CF"/>
<stop offset="1" stop-color="#AA7D20"/>
</linearGradient>
<linearGradient id="paint17_linear_1_2" x1="250" y1="70" x2="250" y2="575" gradientUnits="userSpaceOnUse">
<stop stop-color="#F0F0F0"/>
<stop offset="0.42" stop-color="#E6E0CF"/>
<stop offset="1" stop-color="#AA7D20"/>
</linearGradient>
<linearGradient id="paint18_linear_1_2" x1="250" y1="70.0001" x2="250" y2="575" gradientUnits="userSpaceOnUse">
<stop stop-color="#F0F0F0"/>
<stop offset="0.42" stop-color="#E6E0CF"/>
<stop offset="1" stop-color="#AA7D20"/>
</linearGradient>
<linearGradient id="paint19_linear_1_2" x1="250" y1="70" x2="250" y2="575" gradientUnits="userSpaceOnUse">
<stop stop-color="#F0F0F0"/>
<stop offset="0.42" stop-color="#E6E0CF"/>
<stop offset="1" stop-color="#AA7D20"/>
</linearGradient>
<linearGradient id="paint20_linear_1_2" x1="250" y1="70" x2="250" y2="575" gradientUnits="userSpaceOnUse">
<stop stop-color="#F0F0F0"/>
<stop offset="0.42" stop-color="#E6E0CF"/>
<stop offset="1" stop-color="#AA7D20"/>
</linearGradient>
<linearGradient id="paint21_linear_1_2" x1="250" y1="70.0001" x2="250" y2="575" gradientUnits="userSpaceOnUse">
<stop stop-color="#F0F0F0"/>
<stop offset="0.42" stop-color="#E6E0CF"/>
<stop offset="1" stop-color="#AA7D20"/>
</linearGradient>
<linearGradient id="paint22_linear_1_2" x1="250" y1="70" x2="250" y2="575" gradientUnits="userSpaceOnUse">
<stop stop-color="#F0F0F0"/>
<stop offset="0.42" stop-color="#E6E0CF"/>
<stop offset="1" stop-color="#AA7D20"/>
</linearGradient>
<linearGradient id="paint23_linear_1_2" x1="250" y1="70" x2="250" y2="575" gradientUnits="userSpaceOnUse">
<stop stop-color="#F0F0F0"/>
<stop offset="0.42" stop-color="#E6E0CF"/>
<stop offset="1" stop-color="#AA7D20"/>
</linearGradient>
<linearGradient id="paint24_linear_1_2" x1="250" y1="70" x2="250" y2="575" gradientUnits="userSpaceOnUse">
<stop stop-color="#F0F0F0"/>
<stop offset="0.42" stop-color="#E6E0CF"/>
<stop offset="1" stop-color="#AA7D20"/>
</linearGradient>
<linearGradient id="paint25_linear_1_2" x1="250" y1="70" x2="250" y2="575" gradientUnits="userSpaceOnUse">
<stop stop-color="#F0F0F0"/>
<stop offset="0.42" stop-color="#E6E0CF"/>
<stop offset="1" stop-color="#AA7D20"/>
</linearGradient>
<linearGradient id="paint26_linear_1_2" x1="250" y1="70" x2="250" y2="575" gradientUnits="userSpaceOnUse">
<stop stop-color="#F0F0F0"/>
<stop offset="0.42" stop-color="#E6E0CF"/>
<stop offset="1" stop-color="#AA7D20"/>
</linearGradient>
<linearGradient id="paint27_linear_1_2" x1="250" y1="70" x2="250" y2="575" gradientUnits="userSpaceOnUse">
<stop stop-color="#F0F0F0"/>
<stop offset="0.42" stop-color="#E6E0CF"/>
<stop offset="1" stop-color="#AA7D20"/>
</linearGradient>
<linearGradient id="paint28_linear_1_2" x1="250" y1="70" x2="250" y2="575" gradientUnits="userSpaceOnUse">
<stop stop-color="#F0F0F0"/>
<stop offset="0.42" stop-color="#E6E0CF"/>
<stop offset="1" stop-color="#AA7D20"/>
</linearGradient>
<linearGradient id="paint29_linear_1_2" x1="250" y1="70" x2="250" y2="575" gradientUnits="userSpaceOnUse">
<stop stop-color="#F0F0F0"/>
<stop offset="0.42" stop-color="#E6E0CF"/>
<stop offset="1" stop-color="#AA7D20"/>
</linearGradient>
<linearGradient id="paint30_linear_1_2" x1="250" y1="70" x2="250" y2="575" gradientUnits="userSpaceOnUse">
<stop stop-color="#F0F0F0"/>
<stop offset="0.42" stop-color="#E6E0CF"/>
<stop offset="1" stop-color="#AA7D20"/>
</linearGradient>
<linearGradient id="paint31_linear_1_2" x1="250" y1="70" x2="250" y2="575" gradientUnits="userSpaceOnUse">
<stop stop-color="#F0F0F0"/>
<stop offset="0.42" stop-color="#E6E0CF"/>
<stop offset="1" stop-color="#AA7D20"/>
</linearGradient>
<linearGradient id="paint32_linear_1_2" x1="250" y1="70" x2="250" y2="575" gradientUnits="userSpaceOnUse">
<stop stop-color="#F0F0F0"/>
<stop offset="0.42" stop-color="#E6E0CF"/>
<stop offset="1" stop-color="#AA7D20"/>
</linearGradient>
<linearGradient id="paint33_linear_1_2" x1="250" y1="70" x2="250" y2="575" gradientUnits="userSpaceOnUse">
<stop stop-color="#F0F0F0"/>
<stop offset="0.42" stop-color="#E6E0CF"/>
<stop offset="1" stop-color="#AA7D20"/>
</linearGradient>
<linearGradient id="paint34_linear_1_2" x1="250" y1="70" x2="250" y2="575" gradientUnits="userSpaceOnUse">
<stop stop-color="#F0F0F0"/>
<stop offset="0.42" stop-color="#E6E0CF"/>
<stop offset="1" stop-color="#AA7D20"/>
</linearGradient>
<linearGradient id="paint35_linear_1_2" x1="250" y1="70" x2="250" y2="575" gradientUnits="userSpaceOnUse">
<stop stop-color="#F0F0F0"/>
<stop offset="0.42" stop-color="#E6E0CF"/>
<stop offset="1" stop-color="#AA7D20"/>
</linearGradient>
<linearGradient id="paint36_linear_1_2" x1="250" y1="70" x2="250" y2="575" gradientUnits="userSpaceOnUse">
<stop stop-color="#F0F0F0"/>
<stop offset="0.42" stop-color="#E6E0CF"/>
<stop offset="1" stop-color="#AA7D20"/>
</linearGradient>
<linearGradient id="paint37_linear_1_2" x1="250" y1="70" x2="250" y2="575" gradientUnits="userSpaceOnUse">
<stop stop-color="#F0F0F0"/>
<stop offset="0.42" stop-color="#E6E0CF"/>
<stop offset="1" stop-color="#AA7D20"/>
</linearGradient>
<clipPath id="clip0_1_2">
<rect width="500" height="600" fill="white"/>
</clipPath>
</defs>
</svg>
